# xmcd
#
# Track frame offsets:
#	150
#	42188
#	92139
#	105870
#	137081
#	172751
#	217669
#	246851
#	276663
#	309308
#
# Disc length: 4385 seconds
#
# Revision: 1
# Processed by: cddbd v1.5.2PL0 Copyright (c) Steve Scherf et al.
# Submitted via: audiograbber 1.83.01
#
DISCID=7d111f0a
DTITLE=Grateful Dead - 79-08-05 Oakland Auditorium Arena, Oakland CA
DYEAR=1900
DGENRE=
TTITLE0=Mississippi Half-Step
TTITLE1=Franklin's Tower
TTITLE2=Me and My Uncle
TTITLE3=Big River
TTITLE4=Candyman
TTITLE5=It's All Over Now
TTITLE6=Brown-Eyed Women
TTITLE7=Lost Sailor
TTITLE8=Althea
TTITLE9=Promised Land
EXTD=
EXTT0=
EXTT1=
EXTT2=
EXTT3=
EXTT4=
EXTT5=
EXTT6=
EXTT7=
EXTT8=
EXTT9=
PLAYORDER=
